<svg xmlns="http://www.w3.org/2000/svg" width="2249" height="1456" viewBox="0 0 2249 1456" fill="none">
<rect width="2249" height="1456" fill="black"/>
<circle cx="1145" cy="755" r="500" fill="url(#paint0_linear_936_10)"/>
<path d="M756.934 1064.7C699.766 993.073 663.541 907.015 652.269 816.063C640.998 725.111 655.12 632.813 693.073 549.393C731.025 465.973 791.327 394.685 867.299 343.425C943.271 292.164 1031.95 262.932 1123.51 258.965C1215.07 254.998 1305.95 276.452 1386.07 320.95C1466.19 365.448 1532.43 431.253 1577.45 511.079C1622.48 590.904 1644.53 681.634 1641.17 773.22C1637.8 864.806 1609.16 953.675 1558.4 1029.98" stroke="#D1D1D1" stroke-width="7"/>
<path d="M739.775 1084.85C678.48 1009.54 639.38 918.654 626.861 822.37C614.342 726.086 628.899 628.218 668.899 539.746C708.899 451.274 772.76 375.697 853.317 321.494C933.874 267.292 1027.94 236.608 1124.96 232.884C1221.99 229.161 1318.13 252.546 1402.6 300.415C1487.08 348.284 1556.54 418.744 1603.2 503.89C1649.87 589.037 1671.88 685.501 1666.78 782.461C1661.67 879.421 1629.66 973.042 1574.31 1052.82" stroke="#D1D1D1" stroke-width="5"/>
<path d="M1446.6 907.972C1475.62 854.523 1490.2 794.435 1488.92 733.632C1487.64 672.829 1470.54 613.409 1439.3 561.228C1408.07 509.047 1363.77 465.906 1310.78 436.057C1257.8 406.207 1197.95 390.68 1137.13 391.005C1076.31 391.33 1016.63 407.496 963.967 437.91C911.302 468.324 867.471 511.936 836.793 564.448C806.115 616.96 789.649 676.559 789.019 737.373C788.388 798.186 803.615 858.114 833.198 911.25" stroke="#C9C9C9" stroke-opacity="0.88" stroke-width="60" stroke-miterlimit="16" stroke-dasharray="10 24"/>
<path d="M963.115 780.022C954.913 752.608 953.31 723.642 958.435 695.49C963.561 667.338 975.27 640.797 992.607 618.032C1009.94 595.267 1032.42 576.925 1058.2 564.5C1083.97 552.076 1112.32 545.923 1140.93 546.543C1169.54 547.162 1197.59 554.537 1222.81 568.066C1248.02 581.594 1269.68 600.893 1286.02 624.387C1302.35 647.881 1312.9 674.904 1316.8 703.252C1320.71 731.599 1317.85 760.468 1308.47 787.501" stroke="url(#paint1_linear_936_10)" stroke-width="7"/>
<path d="M760 769.641L893.783 760.394L894.989 766.72L761.409 783.104L760 769.641Z" fill="url(#paint2_linear_936_10)"/>
<path d="M780.312 614L905.808 661.328L904.277 667.584L776.001 626.83L780.312 614Z" fill="url(#paint3_linear_936_10)"/>
<path d="M861.023 479.195L957.626 572.339L953.752 577.48L852 489.274L861.023 479.195Z" fill="url(#paint4_linear_936_10)"/>
<path d="M989.301 389L1040.51 513.114L1034.91 516.268L976.999 394.611L989.301 389Z" fill="url(#paint5_linear_936_10)"/>
<path d="M1144.32 356L1140.68 492.047L1134.28 492.649L1130.81 356.111L1144.32 356Z" fill="url(#paint6_linear_936_10)"/>
<path d="M1297.91 393.412L1239.24 516.175L1233.15 514.113L1285.52 388L1297.91 393.412Z" fill="url(#paint7_linear_936_10)"/>
<path d="M1425.79 484.882L1323.38 574.356L1318.6 570.047L1416.55 475L1425.79 484.882Z" fill="url(#paint8_linear_936_10)"/>
<path d="M1501.33 623.798L1371.37 663.6L1368.76 657.712L1496.92 611L1501.33 623.798Z" fill="url(#paint9_linear_936_10)"/>
<path d="M1517.97 779.066L1382.9 764.054L1382.83 757.613L1518.99 765.568L1517.97 779.066Z" fill="url(#paint10_linear_936_10)"/>
<path d="M1471.2 926.889L1354.79 856.657L1357.43 850.781L1477.76 915.056L1471.2 926.889Z" fill="url(#paint11_linear_936_10)"/>
<path d="M801.951 918.344L919.77 854.206L923.495 859.456L808.825 930L801.951 918.344Z" fill="url(#paint12_linear_936_10)"/>
<path d="M763 938.65V928.35C763 919.15 765.9 915.7 774.5 915.7H777.3C785.95 915.7 788.8 919.15 788.8 928.35V938.65C788.8 947.85 785.95 951.3 777.3 951.3H774.5C765.9 951.3 763 947.85 763 938.65ZM771.7 925.15V941.85C771.7 945.6 772.7 947.35 775.7 947.35H776.1C779.1 947.35 780.1 945.6 780.1 941.85V925.15C780.1 921.35 779.1 919.65 776.1 919.65H775.7C772.7 919.65 771.7 921.35 771.7 925.15Z" fill="white"/>
<path d="M702.25 763.95H714.55C721.25 763.95 723.9 767.35 723.9 771.9V774.4C723.9 778.95 721.85 781.3 715.7 783.95L709.9 786.45C707.5 787.45 706.7 788.4 706.7 790.2V793.65C706.7 794.35 707.05 794.55 708.05 794.55H722.85C723.5 794.55 723.85 795.2 723.55 795.75L721.9 798.7C721.8 798.85 721.6 799 721.4 799H699.9C698.55 799 698 798.15 698 797.1V790.15C698 785.5 700.05 783.1 706.2 780.45L712 777.95C714.4 776.95 715.2 776.05 715.2 774.25V772.1C715.2 769.3 713.85 768.4 710.3 768.4H700.8C700.15 768.4 699.8 767.75 700.1 767.2L701.75 764.25C701.85 764.1 702.05 763.95 702.25 763.95ZM727.98 786.65V776.35C727.98 767.15 730.88 763.7 739.48 763.7H742.28C750.93 763.7 753.78 767.15 753.78 776.35V786.65C753.78 795.85 750.93 799.3 742.28 799.3H739.48C730.88 799.3 727.98 795.85 727.98 786.65ZM736.68 773.15V789.85C736.68 793.6 737.68 795.35 740.68 795.35H741.08C744.08 795.35 745.08 793.6 745.08 789.85V773.15C745.08 769.35 744.08 767.65 741.08 767.65H740.68C737.68 767.65 736.68 769.35 736.68 773.15Z" fill="white"/>
<path d="M711.2 622.2L720.8 597.75C720.95 597.35 721.5 597 721.9 597H728.7C729.1 597 729.25 597.35 729.1 597.75L721.9 616.8C721.55 617.8 721.65 618.5 722.7 618.5H728.3C728.75 618.5 729.1 618.15 729.1 617.7V605.75C729.1 605.35 729.45 605 729.85 605H736.75C737.15 605 737.5 605.35 737.5 605.75V631.25C737.5 631.65 737.15 632 736.75 632H729.85C729.45 632 729.1 631.65 729.1 631.25V623.75C729.1 623.3 728.75 622.95 728.3 622.95H711.65C711.25 622.95 711.05 622.6 711.2 622.2ZM741.98 619.65V609.35C741.98 600.15 744.88 596.7 753.48 596.7H756.28C764.93 596.7 767.78 600.15 767.78 609.35V619.65C767.78 628.85 764.93 632.3 756.28 632.3H753.48C744.88 632.3 741.98 628.85 741.98 619.65ZM750.68 606.15V622.85C750.68 626.6 751.68 628.35 754.68 628.35H755.08C758.08 628.35 759.08 626.6 759.08 622.85V606.15C759.08 602.35 758.08 600.65 755.08 600.65H754.68C751.68 600.65 750.68 602.35 750.68 606.15Z" fill="white"/>
<path d="M820.45 448.4H811.75C808.75 448.4 807.75 449.85 807.75 453.15V456.3C807.75 456.8 808.15 457.2 808.65 457.2H815.55C822.25 457.2 824.9 460.4 824.9 464.65V471.05C824.9 475.6 822.25 479.3 815.55 479.3H810.55C801.95 479.3 799.05 475.85 799.05 466.65V456.35C799.05 447.15 801.95 443.95 810.55 443.95H821.9C822.55 443.95 822.9 444.6 822.6 445.15L820.95 448.1C820.85 448.25 820.65 448.4 820.45 448.4ZM807.75 462.05V469.85C807.75 473.6 808.75 475.35 811.75 475.35H812.9C815.3 475.35 816.2 474.25 816.2 470.85V464.85C816.2 462.05 814.85 461.15 811.3 461.15H808.65C808.15 461.15 807.75 461.55 807.75 462.05ZM828.98 466.65V456.35C828.98 447.15 831.88 443.7 840.48 443.7H843.28C851.93 443.7 854.78 447.15 854.78 456.35V466.65C854.78 475.85 851.93 479.3 843.28 479.3H840.48C831.88 479.3 828.98 475.85 828.98 466.65ZM837.68 453.15V469.85C837.68 473.6 838.68 475.35 841.68 475.35H842.08C845.08 475.35 846.08 473.6 846.08 469.85V453.15C846.08 449.35 845.08 447.65 842.08 447.65H841.68C838.68 447.65 837.68 449.35 837.68 453.15Z" fill="white"/>
<path d="M954.35 347.7H957.7C965.95 347.7 968.45 351.3 968.45 356.15V358.35C968.45 361.45 967.3 363.75 965.05 365.05C967.8 366.4 968.95 368.7 968.95 371.8V374.8C968.95 379.65 966.45 383.25 957.95 383.25H954.1C945.6 383.25 943.1 379.65 943.1 374.8V371.8C943.1 368.7 944.25 366.4 947 365.05C944.75 363.75 943.6 361.45 943.6 358.35V356.15C943.6 351.3 946.1 347.7 954.35 347.7ZM951.35 371V375.1C951.35 377.9 952.6 378.8 955.95 378.8H956.1C959.45 378.8 960.7 377.9 960.7 375.1V371C960.7 368.2 959.45 367.3 956.1 367.3H955.95C952.6 367.3 951.35 368.2 951.35 371ZM951.85 355.85V359.15C951.85 361.95 953.1 362.85 955.95 362.85H956.1C958.95 362.85 960.2 361.95 960.2 359.15V355.85C960.2 353.05 958.95 352.15 956.1 352.15H955.95C953.1 352.15 951.85 353.05 951.85 355.85ZM972.98 370.65V360.35C972.98 351.15 975.88 347.7 984.48 347.7H987.28C995.93 347.7 998.78 351.15 998.78 360.35V370.65C998.78 379.85 995.93 383.3 987.28 383.3H984.48C975.88 383.3 972.98 379.85 972.98 370.65ZM981.68 357.15V373.85C981.68 377.6 982.68 379.35 985.68 379.35H986.08C989.08 379.35 990.08 377.6 990.08 373.85V357.15C990.08 353.35 989.08 351.65 986.08 351.65H985.68C982.68 351.65 981.68 353.35 981.68 357.15Z" fill="white"/>
<path d="M1112.85 304.25V338.25C1112.85 338.65 1112.5 339 1112.1 339H1105.2C1104.8 339 1104.45 338.65 1104.45 338.25V312.9C1104.45 311.5 1103.95 310.7 1102.8 310.7C1102.55 310.7 1102.25 310.75 1101.9 310.85L1099.7 311.4C1098.85 311.6 1098.65 311.15 1098.65 310.5V307.6C1098.65 307.4 1098.95 307.25 1099.15 307.2L1112.1 303.7C1112.5 303.6 1112.85 303.85 1112.85 304.25ZM1123.98 326.65V316.35C1123.98 307.15 1126.88 303.7 1135.48 303.7H1138.28C1146.93 303.7 1149.78 307.15 1149.78 316.35V326.65C1149.78 335.85 1146.93 339.3 1138.28 339.3H1135.48C1126.88 339.3 1123.98 335.85 1123.98 326.65ZM1132.68 313.15V329.85C1132.68 333.6 1133.68 335.35 1136.68 335.35H1137.08C1140.08 335.35 1141.08 333.6 1141.08 329.85V313.15C1141.08 309.35 1140.08 307.65 1137.08 307.65H1136.68C1133.68 307.65 1132.68 309.35 1132.68 313.15ZM1153.96 326.65V316.35C1153.96 307.15 1156.86 303.7 1165.46 303.7H1168.26C1176.91 303.7 1179.76 307.15 1179.76 316.35V326.65C1179.76 335.85 1176.91 339.3 1168.26 339.3H1165.46C1156.86 339.3 1153.96 335.85 1153.96 326.65ZM1162.66 313.15V329.85C1162.66 333.6 1163.66 335.35 1166.66 335.35H1167.06C1170.06 335.35 1171.06 333.6 1171.06 329.85V313.15C1171.06 309.35 1170.06 307.65 1167.06 307.65H1166.66C1163.66 307.65 1162.66 309.35 1162.66 313.15Z" fill="white"/>
<path d="M1305.85 348.25V382.25C1305.85 382.65 1305.5 383 1305.1 383H1298.2C1297.8 383 1297.45 382.65 1297.45 382.25V356.9C1297.45 355.5 1296.95 354.7 1295.8 354.7C1295.55 354.7 1295.25 354.75 1294.9 354.85L1292.7 355.4C1291.85 355.6 1291.65 355.15 1291.65 354.5V351.6C1291.65 351.4 1291.95 351.25 1292.15 351.2L1305.1 347.7C1305.5 347.6 1305.85 347.85 1305.85 348.25ZM1321.23 347.95H1333.53C1340.23 347.95 1342.88 351.35 1342.88 355.9V358.4C1342.88 362.95 1340.83 365.3 1334.68 367.95L1328.88 370.45C1326.48 371.45 1325.68 372.4 1325.68 374.2V377.65C1325.68 378.35 1326.03 378.55 1327.03 378.55H1341.83C1342.48 378.55 1342.83 379.2 1342.53 379.75L1340.88 382.7C1340.78 382.85 1340.58 383 1340.38 383H1318.88C1317.53 383 1316.98 382.15 1316.98 381.1V374.15C1316.98 369.5 1319.03 367.1 1325.18 364.45L1330.98 361.95C1333.38 360.95 1334.18 360.05 1334.18 358.25V356.1C1334.18 353.3 1332.83 352.4 1329.28 352.4H1319.78C1319.13 352.4 1318.78 351.75 1319.08 351.2L1320.73 348.25C1320.83 348.1 1321.03 347.95 1321.23 347.95ZM1346.96 370.65V360.35C1346.96 351.15 1349.86 347.7 1358.46 347.7H1361.26C1369.91 347.7 1372.76 351.15 1372.76 360.35V370.65C1372.76 379.85 1369.91 383.3 1361.26 383.3H1358.46C1349.86 383.3 1346.96 379.85 1346.96 370.65ZM1355.66 357.15V373.85C1355.66 377.6 1356.66 379.35 1359.66 379.35H1360.06C1363.06 379.35 1364.06 377.6 1364.06 373.85V357.15C1364.06 353.35 1363.06 351.65 1360.06 351.65H1359.66C1356.66 351.65 1355.66 353.35 1355.66 357.15Z" fill="white"/>
<path d="M1435.85 444.25V478.25C1435.85 478.65 1435.5 479 1435.1 479H1428.2C1427.8 479 1427.45 478.65 1427.45 478.25V452.9C1427.45 451.5 1426.95 450.7 1425.8 450.7C1425.55 450.7 1425.25 450.75 1424.9 450.85L1422.7 451.4C1421.85 451.6 1421.65 451.15 1421.65 450.5V447.6C1421.65 447.4 1421.95 447.25 1422.15 447.2L1435.1 443.7C1435.5 443.6 1435.85 443.85 1435.85 444.25ZM1446.18 469.2L1455.78 444.75C1455.93 444.35 1456.48 444 1456.88 444H1463.68C1464.08 444 1464.23 444.35 1464.08 444.75L1456.88 463.8C1456.53 464.8 1456.63 465.5 1457.68 465.5H1463.28C1463.73 465.5 1464.08 465.15 1464.08 464.7V452.75C1464.08 452.35 1464.43 452 1464.83 452H1471.73C1472.13 452 1472.48 452.35 1472.48 452.75V478.25C1472.48 478.65 1472.13 479 1471.73 479H1464.83C1464.43 479 1464.08 478.65 1464.08 478.25V470.75C1464.08 470.3 1463.73 469.95 1463.28 469.95H1446.63C1446.23 469.95 1446.03 469.6 1446.18 469.2ZM1476.96 466.65V456.35C1476.96 447.15 1479.86 443.7 1488.46 443.7H1491.26C1499.91 443.7 1502.76 447.15 1502.76 456.35V466.65C1502.76 475.85 1499.91 479.3 1491.26 479.3H1488.46C1479.86 479.3 1476.96 475.85 1476.96 466.65ZM1485.66 453.15V469.85C1485.66 473.6 1486.66 475.35 1489.66 475.35H1490.06C1493.06 475.35 1494.06 473.6 1494.06 469.85V453.15C1494.06 449.35 1493.06 447.65 1490.06 447.65H1489.66C1486.66 447.65 1485.66 449.35 1485.66 453.15Z" fill="white"/>
<path d="M1517.85 597.25V631.25C1517.85 631.65 1517.5 632 1517.1 632H1510.2C1509.8 632 1509.45 631.65 1509.45 631.25V605.9C1509.45 604.5 1508.95 603.7 1507.8 603.7C1507.55 603.7 1507.25 603.75 1506.9 603.85L1504.7 604.4C1503.85 604.6 1503.65 604.15 1503.65 603.5V600.6C1503.65 600.4 1503.95 600.25 1504.15 600.2L1517.1 596.7C1517.5 596.6 1517.85 596.85 1517.85 597.25ZM1550.43 601.4H1541.73C1538.73 601.4 1537.73 602.85 1537.73 606.15V609.3C1537.73 609.8 1538.13 610.2 1538.63 610.2H1545.53C1552.23 610.2 1554.88 613.4 1554.88 617.65V624.05C1554.88 628.6 1552.23 632.3 1545.53 632.3H1540.53C1531.93 632.3 1529.03 628.85 1529.03 619.65V609.35C1529.03 600.15 1531.93 596.95 1540.53 596.95H1551.88C1552.53 596.95 1552.88 597.6 1552.58 598.15L1550.93 601.1C1550.83 601.25 1550.63 601.4 1550.43 601.4ZM1537.73 615.05V622.85C1537.73 626.6 1538.73 628.35 1541.73 628.35H1542.88C1545.28 628.35 1546.18 627.25 1546.18 623.85V617.85C1546.18 615.05 1544.83 614.15 1541.28 614.15H1538.63C1538.13 614.15 1537.73 614.55 1537.73 615.05ZM1558.96 619.65V609.35C1558.96 600.15 1561.86 596.7 1570.46 596.7H1573.26C1581.91 596.7 1584.76 600.15 1584.76 609.35V619.65C1584.76 628.85 1581.91 632.3 1573.26 632.3H1570.46C1561.86 632.3 1558.96 628.85 1558.96 619.65ZM1567.66 606.15V622.85C1567.66 626.6 1568.66 628.35 1571.66 628.35H1572.06C1575.06 628.35 1576.06 626.6 1576.06 622.85V606.15C1576.06 602.35 1575.06 600.65 1572.06 600.65H1571.66C1568.66 600.65 1567.66 602.35 1567.66 606.15Z" fill="white"/>
<path d="M1539.85 764.25V798.25C1539.85 798.65 1539.5 799 1539.1 799H1532.2C1531.8 799 1531.45 798.65 1531.45 798.25V772.9C1531.45 771.5 1530.95 770.7 1529.8 770.7C1529.55 770.7 1529.25 770.75 1528.9 770.85L1526.7 771.4C1525.85 771.6 1525.65 771.15 1525.65 770.5V767.6C1525.65 767.4 1525.95 767.25 1526.15 767.2L1539.1 763.7C1539.5 763.6 1539.85 763.85 1539.85 764.25ZM1562.33 763.7H1565.68C1573.93 763.7 1576.43 767.3 1576.43 772.15V774.35C1576.43 777.45 1575.28 779.75 1573.03 781.05C1575.78 782.4 1576.93 784.7 1576.93 787.8V790.8C1576.93 795.65 1574.43 799.25 1565.93 799.25H1562.08C1553.58 799.25 1551.08 795.65 1551.08 790.8V787.8C1551.08 784.7 1552.23 782.4 1554.98 781.05C1552.73 779.75 1551.58 777.45 1551.58 774.35V772.15C1551.58 767.3 1554.08 763.7 1562.33 763.7ZM1559.33 787V791.1C1559.33 793.9 1560.58 794.8 1563.93 794.8H1564.08C1567.43 794.8 1568.68 793.9 1568.68 791.1V787C1568.68 784.2 1567.43 783.3 1564.08 783.3H1563.93C1560.58 783.3 1559.33 784.2 1559.33 787ZM1559.83 771.85V775.15C1559.83 777.95 1561.08 778.85 1563.93 778.85H1564.08C1566.93 778.85 1568.18 777.95 1568.18 775.15V771.85C1568.18 769.05 1566.93 768.15 1564.08 768.15H1563.93C1561.08 768.15 1559.83 769.05 1559.83 771.85ZM1580.96 786.65V776.35C1580.96 767.15 1583.86 763.7 1592.46 763.7H1595.26C1603.91 763.7 1606.76 767.15 1606.76 776.35V786.65C1606.76 795.85 1603.91 799.3 1595.26 799.3H1592.46C1583.86 799.3 1580.96 795.85 1580.96 786.65ZM1589.66 773.15V789.85C1589.66 793.6 1590.66 795.35 1593.66 795.35H1594.06C1597.06 795.35 1598.06 793.6 1598.06 789.85V773.15C1598.06 769.35 1597.06 767.65 1594.06 767.65H1593.66C1590.66 767.65 1589.66 769.35 1589.66 773.15Z" fill="white"/>
<path d="M1484.25 915.95H1496.55C1503.25 915.95 1505.9 919.35 1505.9 923.9V926.4C1505.9 930.95 1503.85 933.3 1497.7 935.95L1491.9 938.45C1489.5 939.45 1488.7 940.4 1488.7 942.2V945.65C1488.7 946.35 1489.05 946.55 1490.05 946.55H1504.85C1505.5 946.55 1505.85 947.2 1505.55 947.75L1503.9 950.7C1503.8 950.85 1503.6 951 1503.4 951H1481.9C1480.55 951 1480 950.15 1480 949.1V942.15C1480 937.5 1482.05 935.1 1488.2 932.45L1494 929.95C1496.4 928.95 1497.2 928.05 1497.2 926.25V924.1C1497.2 921.3 1495.85 920.4 1492.3 920.4H1482.8C1482.15 920.4 1481.8 919.75 1482.1 919.2L1483.75 916.25C1483.85 916.1 1484.05 915.95 1484.25 915.95ZM1514.23 915.95H1526.53C1533.23 915.95 1535.88 919.35 1535.88 923.9V926.4C1535.88 930.95 1533.83 933.3 1527.68 935.95L1521.88 938.45C1519.48 939.45 1518.68 940.4 1518.68 942.2V945.65C1518.68 946.35 1519.03 946.55 1520.03 946.55H1534.83C1535.48 946.55 1535.83 947.2 1535.53 947.75L1533.88 950.7C1533.78 950.85 1533.58 951 1533.38 951H1511.88C1510.53 951 1509.98 950.15 1509.98 949.1V942.15C1509.98 937.5 1512.03 935.1 1518.18 932.45L1523.98 929.95C1526.38 928.95 1527.18 928.05 1527.18 926.25V924.1C1527.18 921.3 1525.83 920.4 1522.28 920.4H1512.78C1512.13 920.4 1511.78 919.75 1512.08 919.2L1513.73 916.25C1513.83 916.1 1514.03 915.95 1514.23 915.95ZM1539.96 938.65V928.35C1539.96 919.15 1542.86 915.7 1551.46 915.7H1554.26C1562.91 915.7 1565.76 919.15 1565.76 928.35V938.65C1565.76 947.85 1562.91 951.3 1554.26 951.3H1551.46C1542.86 951.3 1539.96 947.85 1539.96 938.65ZM1548.66 925.15V941.85C1548.66 945.6 1549.66 947.35 1552.66 947.35H1553.06C1556.06 947.35 1557.06 945.6 1557.06 941.85V925.15C1557.06 921.35 1556.06 919.65 1553.06 919.65H1552.66C1549.66 919.65 1548.66 921.35 1548.66 925.15Z" fill="white"/>
<path d="M1060.84 782.32L1065.08 762H1081.64V768.96L1075.16 788.32L1083 811.04V818H1065.56L1060.84 796.32H1057.72V818H1040.2V762H1057.72V782.32H1060.84ZM1108.98 818L1104.66 791.12H1103.3V818H1086.18V811.04L1091.94 762H1111.46L1115.7 784.08H1116.9L1121.14 762H1140.74L1146.42 811.04V818H1129.38V791.12H1127.94L1123.62 818H1108.98ZM1190.02 765.04L1159.3 818H1148.02V814.96L1178.82 762H1190.02V765.04ZM1199.41 799.12C1195.33 799.12 1192.45 796.16 1192.45 792.08V762H1209.89V785.12H1216.93V762H1234.37V818H1216.93V799.12H1199.41Z" fill="white"/>
<path d="M1778.12 703.84H1740.35C1739.32 703.837 1738.29 704.042 1737.34 704.443C1736.38 704.845 1735.51 705.434 1734.78 706.178L1729.69 711.316L1724.59 706.178C1723.12 704.684 1721.76 702.5 1719.67 702.5C1717.58 702.5 1714.93 704.684 1713.46 706.178L1701.64 718.139C1700.16 719.634 1698 721.661 1698 723.775C1698 725.889 1700.16 727.916 1701.64 729.411L1706.71 734.57L1701.64 739.723C1700.9 740.46 1700.32 741.339 1699.92 742.306C1699.53 743.274 1699.32 744.312 1699.33 745.359V799.526C1699.33 801.641 1700.16 803.669 1701.63 805.165C1703.11 806.66 1705.12 807.5 1707.21 807.5H1778.12C1780.21 807.5 1782.21 806.66 1783.69 805.165C1785.17 803.669 1786 801.641 1786 799.526V711.814C1786 709.699 1785.17 707.671 1783.69 706.176C1782.21 704.681 1780.21 703.84 1778.12 703.84ZM1707.21 723.775L1719.03 711.814L1724.12 716.967L1712.3 728.928L1707.21 723.775ZM1778.12 799.526H1707.21V745.359L1715.09 737.385L1740.35 711.814H1778.12V799.526ZM1742.66 723.775C1742.66 722.718 1743.08 721.704 1743.82 720.956C1744.56 720.208 1745.56 719.788 1746.6 719.788H1766.3C1767.35 719.788 1768.35 720.208 1769.09 720.956C1769.83 721.704 1770.24 722.718 1770.24 723.775C1770.24 724.832 1769.83 725.846 1769.09 726.594C1768.35 727.342 1767.35 727.762 1766.3 727.762H1746.6C1745.56 727.762 1744.56 727.342 1743.82 726.594C1743.08 725.846 1742.66 724.832 1742.66 723.775Z" fill="#D1D1D1"/>
<defs>
<linearGradient id="paint0_linear_936_10" x1="1145" y1="255" x2="1145" y2="1255" gradientUnits="userSpaceOnUse">
<stop stop-color="#D78C2A" stop-opacity="0.5"/>
<stop offset="0.713113" stop-color="#625746" stop-opacity="0"/>
</linearGradient>
<linearGradient id="paint1_linear_936_10" x1="1137" y1="543" x2="1137" y2="913" gradientUnits="userSpaceOnUse">
<stop offset="0.360904" stop-color="#D9D9D9"/>
<stop offset="0.66097" stop-color="#504E4A" stop-opacity="0"/>
</linearGradient>
<linearGradient id="paint2_linear_936_10" x1="760.705" y1="776.372" x2="894.534" y2="762.364" gradientUnits="userSpaceOnUse">
<stop offset="0.62" stop-color="#D78C2A"/>
<stop offset="1" stop-color="#714A16" stop-opacity="0"/>
</linearGradient>
<linearGradient id="paint3_linear_936_10" x1="778.157" y1="620.415" x2="905.722" y2="663.287" gradientUnits="userSpaceOnUse">
<stop offset="0.62" stop-color="#D78C2A"/>
<stop offset="1" stop-color="#714A16" stop-opacity="0"/>
</linearGradient>
<linearGradient id="paint4_linear_936_10" x1="856.512" y1="484.234" x2="956.827" y2="574.045" gradientUnits="userSpaceOnUse">
<stop offset="0.62" stop-color="#D78C2A"/>
<stop offset="1" stop-color="#714A16" stop-opacity="0"/>
</linearGradient>
<linearGradient id="paint5_linear_936_10" x1="983.15" y1="391.806" x2="1039.06" y2="514.374" gradientUnits="userSpaceOnUse">
<stop offset="0.62" stop-color="#D78C2A"/>
<stop offset="1" stop-color="#714A16" stop-opacity="0"/>
</linearGradient>
<linearGradient id="paint6_linear_936_10" x1="1137.57" y1="356.056" x2="1138.69" y2="492.613" gradientUnits="userSpaceOnUse">
<stop offset="0.62" stop-color="#D78C2A"/>
<stop offset="1" stop-color="#714A16" stop-opacity="0"/>
</linearGradient>
<linearGradient id="paint7_linear_936_10" x1="1291.71" y1="390.706" x2="1237.06" y2="515.823" gradientUnits="userSpaceOnUse">
<stop offset="0.62" stop-color="#D78C2A"/>
<stop offset="1" stop-color="#714A16" stop-opacity="0"/>
</linearGradient>
<linearGradient id="paint8_linear_936_10" x1="1421.17" y1="479.941" x2="1321.49" y2="573.13" gradientUnits="userSpaceOnUse">
<stop offset="0.62" stop-color="#D78C2A"/>
<stop offset="1" stop-color="#714A16" stop-opacity="0"/>
</linearGradient>
<linearGradient id="paint9_linear_936_10" x1="1499.13" y1="617.399" x2="1370.16" y2="661.775" gradientUnits="userSpaceOnUse">
<stop offset="0.62" stop-color="#D78C2A"/>
<stop offset="1" stop-color="#714A16" stop-opacity="0"/>
</linearGradient>
<linearGradient id="paint10_linear_936_10" x1="1518.48" y1="772.317" x2="1382.5" y2="762.05" gradientUnits="userSpaceOnUse">
<stop offset="0.62" stop-color="#D78C2A"/>
<stop offset="1" stop-color="#714A16" stop-opacity="0"/>
</linearGradient>
<linearGradient id="paint11_linear_936_10" x1="1474.48" y1="920.972" x2="1355.2" y2="854.79" gradientUnits="userSpaceOnUse">
<stop offset="0.62" stop-color="#D78C2A"/>
<stop offset="1" stop-color="#714A16" stop-opacity="0"/>
</linearGradient>
<linearGradient id="paint12_linear_936_10" x1="805.388" y1="924.172" x2="921.337" y2="855.797" gradientUnits="userSpaceOnUse">
<stop offset="0.495" stop-color="#D78C2A"/>
<stop offset="1" stop-color="#714A16" stop-opacity="0"/>
</linearGradient>
</defs>
</svg>